<svg xmlns="http://www.w3.org/2000/svg" viewBox="0 0 6000 4000"><defs><style>.cls-1{fill:#ebe9da;}.cls-2{fill:#b2b0a1;}.cls-3{fill:#b2af9c;}.cls-4{fill:#848272;}.cls-5{fill:#fff;}.cls-6{fill:#692f0a;}.cls-7{fill:#323f8b;}.Graphic-Style-61{fill:#050505;}.cls-8{fill:#0c0a0a;}.cls-9{fill:#3a78dd;}.cls-10{fill:#174690;}.cls-11{fill:#6799fc;}.cls-12{fill:#efede1;}.cls-13{fill:#381746;}.cls-14{fill:#fecd3b;}.Graphic-Style-28{fill:#ffa810;}.DA{fill:#ffa99c;}.cls-15{fill:#f47d65;}.Graphic-Style-29{fill:#ffe49f;}.cls-16{fill:#ff2d60;}.Graphic-Style-30{fill:#bf2248;}.cls-17{fill:#060606;}</style></defs><g id="Vectors"><circle class="cls-1" cx="2309.81" cy="2419.14" r="115.49"/><path class="cls-1" d="M4763.12,2375.62l44.28-29.29c-6.92-27.95-6.94-28-13.87-56l-52.83-5.23-27-36.55,10.58-52-49.38-29.77-41.06,33.66-44.92-6.78-29.3-44.27-56,13.87-5.23,52.83c-14.6,10.76-22,16.2-36.56,27l-52-10.6-29.77,49.39,33.65,41.06c-2.7,17.93-4.07,27-6.77,44.92l-44.28,29.31c6.93,27.94,6.95,28,13.87,56l52.84,5.22c10.76,14.6,16.19,22,27,36.57l-10.59,52c24.65,14.87,24.72,14.91,49.39,29.77l41-33.66,44.93,6.78,29.29,44.27,56-13.87,5.24-52.83c14.58-10.77,22-16.21,36.55-27l52,10.59L4790,2461.6l-33.67-41.06C4759.06,2402.61,4760.42,2393.55,4763.12,2375.62Zm-178.07,88.94a92.84,92.84,0,1,1,92.84-92.84A92.83,92.83,0,0,1,4585.05,2464.56Z"/><path class="cls-1" d="M3214.77,2675l44.28-29.3-13.88-56-52.83-5.23c-10.77-14.6-16.21-22-27-36.56l10.59-52-49.39-29.77-41.06,33.65-44.92-6.77-29.29-44.28-56,13.88-5.23,52.83c-14.6,10.76-22,16.2-36.55,27l-52-10.6c-14.86,24.67-14.9,24.73-29.77,49.39l33.65,41.06c-2.7,17.93-4.06,27-6.77,44.92l-44.28,29.3,13.88,56,52.83,5.23,27,36.56-10.59,52,49.39,29.77,41.06-33.67,44.92,6.79,29.29,44.26c28-6.91,28-6.93,56-13.86l5.23-52.83c14.59-10.77,22-16.21,36.56-27l52,10.58c14.86-24.66,14.9-24.72,29.77-49.38L3208,2720C3210.7,2702,3212.06,2693,3214.77,2675ZM3036.69,2764a92.84,92.84,0,1,1,92.84-92.84A92.84,92.84,0,0,1,3036.69,2764Z"/><path class="cls-1" d="M1623.26,3409.16h945.56c3.42-5.56,38.24-63.92,14.08-113.67-25.86-53.28-111.71-80.95-193.13-39.23-21.94-46.88-49.91-74.33-71.42-90.53-100.79-75.89-266.49-60.25-417.46,37.22-23.91-20.93-119.34-100.55-213.25-84.5-17.74,3-47.42,8.1-63.37,33.19-19.38,30.47-4.5,68.38-2,74.44-6.34.29-64.38,8.05-75.44,47.28C1534.94,3315.44,1547.91,3373.94,1623.26,3409.16Z"/><path class="cls-2" d="M3086.33,3025.16h-509a4,4,0,0,1,0-8h509a4,4,0,0,1,0,8Z"/><path class="cls-2" d="M3065,3109.28H2824a4,4,0,0,1,0-8H3065a4,4,0,0,1,0,8Z"/><path class="cls-2" d="M2894.57,3022a4,4,0,0,1-4-4v-79.13a4,4,0,0,1,8,0V3018A4,4,0,0,1,2894.57,3022Z"/><path class="cls-2" d="M2970.49,3107.5a4,4,0,0,1-4-4v-82.34a4,4,0,0,1,8,0v82.34A4,4,0,0,1,2970.49,3107.5Z"/><path class="cls-2" d="M2692.47,3025.16a4,4,0,0,1-4-4v-82.34a4,4,0,0,1,8,0v82.34A4,4,0,0,1,2692.47,3025.16Z"/><path class="cls-2" d="M2725.62,2772.8H2302.17a4,4,0,0,1,0-8h423.45a4,4,0,0,1,0,8Z"/><path class="cls-2" d="M2732.75,2854.07h-509a4,4,0,0,1,0-8h509a4,4,0,0,1,0,8Z"/><path class="cls-2" d="M3071.36,2938.19h-601a4,4,0,0,1,0-8h601a4,4,0,0,1,0,8Z"/><path class="cls-2" d="M2541,2850.86a4,4,0,0,1-4-4v-79.13a4,4,0,1,1,8,0v79.13A4,4,0,0,1,2541,2850.86Z"/><path class="cls-2" d="M2616.91,2936.41a4,4,0,0,1-4-4v-82.34a4,4,0,1,1,8,0v82.34A4,4,0,0,1,2616.91,2936.41Z"/><path class="cls-2" d="M2338.89,2854.07a4,4,0,0,1-4-4v-82.34a4,4,0,0,1,8,0v82.34A4,4,0,0,1,2338.89,2854.07Z"/><path class="cls-2" d="M2066.93,2915.38H1643.48a4,4,0,0,1,0-8h423.45a4,4,0,0,1,0,8Z"/><path class="cls-2" d="M2074.05,2996.65h-509a4,4,0,0,1,0-8h509a4,4,0,0,1,0,8Z"/><path class="cls-2" d="M2052.67,3080.76h-241a4,4,0,0,1,0-8h241a4,4,0,0,1,0,8Z"/><path class="cls-2" d="M1882.29,2993.44a4,4,0,0,1-4-4v-79.13a4,4,0,0,1,8,0v79.13A4,4,0,0,1,1882.29,2993.44Z"/><path class="cls-2" d="M1958.21,3079a4,4,0,0,1-4-4v-82.33a4,4,0,0,1,8,0V3075A4,4,0,0,1,1958.21,3079Z"/><path class="cls-2" d="M1680.19,2996.65a4,4,0,0,1-4-4v-82.34a4,4,0,0,1,8,0v82.34A4,4,0,0,1,1680.19,2996.65Z"/><rect class="cls-3" x="3675.19" y="3149.13" width="962.95" height="255.79"/><rect class="cls-3" x="3675.19" y="2893.34" width="669.62" height="255.79"/><rect class="cls-3" x="3432.23" y="2637.54" width="628.14" height="255.79"/><rect class="cls-1" x="3047.05" y="3149.13" width="962.95" height="255.79"/><rect class="cls-1" x="3047.05" y="2893.34" width="669.62" height="255.79"/><rect class="cls-1" x="3047.05" y="2637.54" width="385.18" height="255.79"/><rect class="cls-4" x="3047.04" y="3150.9" width="1624.4" height="22.81"/><rect class="cls-4" x="3047.04" y="2889.64" width="1324.16" height="22.81"/><rect class="cls-4" x="3047.04" y="2633" width="1034.73" height="22.81"/><rect class="cls-2" x="1549.63" y="629.3" width="2678.87" height="1557.22" rx="192.25"/><rect class="cls-5" x="1476.91" y="595.08" width="2678.87" height="1557.22" rx="192.25"/><path class="cls-6" d="M3963.54,2154.8H1669.16c-107.38,0-194.75-87.36-194.75-194.75V787.33c0-107.39,87.37-194.75,194.75-194.75H3963.54c107.38,0,194.75,87.36,194.75,194.75V1960.05C4158.29,2067.44,4070.92,2154.8,3963.54,2154.8ZM1669.16,597.58c-104.63,0-189.75,85.12-189.75,189.75V1960.05c0,104.63,85.12,189.75,189.75,189.75H3963.54c104.63,0,189.75-85.12,189.75-189.75V787.33c0-104.63-85.12-189.75-189.75-189.75Z"/><rect class="cls-1" x="1568.26" y="680.14" width="2496.19" height="1387.11" rx="118.35"/><polygon class="cls-7" points="2536.43 2023.93 2524.43 2023.93 2524.43 2015.93 2528.43 2015.93 2528.43 2011.93 2536.43 2011.93 2536.43 2023.93"/><path class="cls-7" d="M2508.39,2023.93h-16v-8h16Zm-32.08,0h-16v-8h16Zm-32.08,0h-16v-8h16Zm-32.08,0h-16v-8h16Zm-32.08,0h-16v-8h16Zm-32.08,0h-16v-8h16Zm-32.08,0h-16v-8h16Zm-32.08,0h-16v-8h16Zm-32.09,0h-16v-8h16Zm-32.08,0h-16v-8h16Zm-32.08,0h-16v-8h16Zm-32.08,0h-16v-8h16Zm-32.08,0h-16v-8h16Zm-32.08,0h-16v-8h16Zm-32.08,0h-16v-8h16Zm-32.08,0h-16v-8h16Zm-32.08,0h-16v-8h16Zm-32.08,0h-16v-8h16Zm-32.08,0h-16v-8h16Zm-32.08,0h-16v-8h16Zm-32.09,0h-16v-8h16Zm-32.08,0h-16v-8h16Zm-32.08,0h-16v-8h16Zm-32.08,0h-16v-8h16Zm-32.08,0h-16v-8h16Z"/><polygon class="cls-7" points="1706.37 2023.93 1694.37 2023.93 1694.37 2011.93 1702.37 2011.93 1702.37 2015.93 1706.37 2015.93 1706.37 2023.93"/><path class="cls-7" d="M1702.37,1996.2h-8v-15.74h8Zm0-31.48h-8V1949h8Zm0-31.47h-8v-15.73h8Zm0-31.47h-8V1886h8Zm0-31.47h-8v-15.74h8Zm0-31.47h-8V1823.1h8Zm0-31.48h-8v-15.73h8Zm0-31.47h-8v-15.73h8Zm0-31.47h-8v-15.74h8Zm0-31.47h-8v-15.74h8Z"/><polygon class="cls-7" points="1702.37 1681.48 1694.37 1681.48 1694.37 1669.48 1706.37 1669.48 1706.37 1677.48 1702.37 1677.48 1702.37 1681.48"/><path class="cls-7" d="M2508.39,1677.48h-16v-8h16Zm-32.08,0h-16v-8h16Zm-32.08,0h-16v-8h16Zm-32.08,0h-16v-8h16Zm-32.08,0h-16v-8h16Zm-32.08,0h-16v-8h16Zm-32.08,0h-16v-8h16Zm-32.08,0h-16v-8h16Zm-32.09,0h-16v-8h16Zm-32.08,0h-16v-8h16Zm-32.08,0h-16v-8h16Zm-32.08,0h-16v-8h16Zm-32.08,0h-16v-8h16Zm-32.08,0h-16v-8h16Zm-32.08,0h-16v-8h16Zm-32.08,0h-16v-8h16Zm-32.08,0h-16v-8h16Zm-32.08,0h-16v-8h16Zm-32.08,0h-16v-8h16Zm-32.08,0h-16v-8h16Zm-32.08,0h-16v-8h16Zm-32.09,0h-16v-8h16Zm-32.08,0h-16v-8h16Zm-32.08,0h-16v-8h16Zm-32.08,0h-16v-8h16Z"/><polygon class="cls-7" points="2536.43 1681.48 2528.43 1681.48 2528.43 1677.48 2524.43 1677.48 2524.43 1669.48 2536.43 1669.48 2536.43 1681.48"/><path class="cls-7" d="M2536.43,1996.2h-8v-15.74h8Zm0-31.48h-8V1949h8Zm0-31.47h-8v-15.73h8Zm0-31.47h-8V1886h8Zm0-31.47h-8v-15.74h8Zm0-31.47h-8V1823.1h8Zm0-31.48h-8v-15.73h8Zm0-31.47h-8v-15.73h8Zm0-31.47h-8v-15.74h8Zm0-31.47h-8v-15.74h8Z"/><path class="cls-7" d="M2458.73,1566.27v-8h16.14v8h-16.14Zm-16,0h-15.95v-8h15.95Zm-31.91,0h-16v-8h16Zm-31.92,0h-16v-8h16Zm-31.91,0h-16v-8h16Zm-31.91,0h-16v-8h16Zm-31.92,0h-16v-8h16Zm-31.91,0h-16v-8h16Zm-31.92,0h-16v-8h16Zm-31.91,0h-16v-8h16Zm-31.92,0h-16v-8h16Zm-31.91,0h-16v-8h16Zm-31.92,0h-15.95v-8h15.95Zm-31.91,0h-16v-8h16Zm-31.92,0h-16v-8h16Zm-31.91,0h-16v-8h16Zm-31.92,0h-16v-8h16Zm-31.91,0h-16v-8h16Zm-31.92,0h-16v-8h16Zm-31.91,0h-16v-8h16Zm-31.91,0h-16v-8h16Zm-31.92,0h-16v-8h16Zm-32.2-.19a70.51,70.51,0,0,1-16.56-3.25l2.48-7.61a62.3,62.3,0,0,0,14.67,2.88Zm719.35-1.87-1.92-7.76a62.2,62.2,0,0,0,14-5.32l3.72,7.08A69.68,69.68,0,0,1,2491.63,1564.21Zm-751.22-8.51a70.68,70.68,0,0,1-13.15-10.56l5.71-5.6a63,63,0,0,0,11.67,9.37Zm780.87-7.09-5.31-6a62.58,62.58,0,0,0,9.94-11.19l6.57,4.56A70.69,70.69,0,0,1,2521.28,1548.61ZM1717,1531.76a70.18,70.18,0,0,1-6.79-15.45l7.66-2.31a61.54,61.54,0,0,0,6,13.68Zm823.39-10.68-7.47-2.86a61.93,61.93,0,0,0,3.61-14.51l7.94,1A70,70,0,0,1,2540.37,1521.08Zm-833.07-21.4c-.06-1.23-.1-2.48-.1-3.71v-12.45h8V1496c0,1.09,0,2.2.09,3.3ZM2545,1488.26h-8v-16h8Zm-829.79-20.7h-8v-16h8ZM2545,1456.35h-8v-16h8Zm-829.79-20.7h-8v-16h8ZM2545,1424.43h-8v-16h8Zm-829.79-20.7h-8v-16h8ZM2545,1392.52h-8v-16h8Zm-829.79-20.7h-8v-16h8ZM2545,1360.61h-8v-16h8ZM1715.2,1339.9h-8v-16h8ZM2545,1328.69h-8v-16h8ZM1715.2,1308h-8v-16h8ZM2545,1296.78h-8v-16h8Zm-829.79-20.71h-8v-16h8ZM2545,1264.86h-8v-16h8Zm-829.79-20.7h-8v-16h8ZM2545,1233h-8v-16h8Zm-829.79-20.71h-8v-16h8ZM2545,1201h-8v-16h8Zm-829.79-20.7h-8v-16h8ZM2545,1169.12h-8v-16h8Zm-829.79-20.71h-8v-16h8ZM2545,1137.2h-8v-16h8Zm-829.79-20.7h-8v-16h8ZM2545,1105.29h-8v-16h8Zm-829.79-20.71h-8v-15.95h8ZM2545,1073.37h-8v-15.95h8Zm-829.79-20.7h-8v-16h8ZM2545,1041.46h-8v-16h8Zm-829.79-20.7h-8v-16h8ZM2545,1009.54h-8V993.59h8Zm-829.79-20.7h-8v-16h8ZM2545,977.63h-8v-16h8Zm-829.79-20.7h-8V941h8ZM2545,945.72h-8v-16h8ZM1715.2,925h-8v-16h8ZM2545,913.8h-8V901.44c0-1.13,0-2.26-.09-3.38l8-.43c.07,1.26.11,2.54.11,3.81Zm-829.3-20.18-7.94-1a70.1,70.1,0,0,1,4.1-16.38l7.47,2.87A61.84,61.84,0,0,0,1715.69,893.62Zm818.62-10.29a61.5,61.5,0,0,0-6-13.67l6.88-4.09A70,70,0,0,1,2542,881Zm-808-17.43-6.57-4.57a70.74,70.74,0,0,1,11.22-12.6l5.3,6A62.51,62.51,0,0,0,1726.33,865.9Zm792.82-8.09a62.13,62.13,0,0,0-11.67-9.35l4.21-6.8a70.79,70.79,0,0,1,13.17,10.54Zm-770.56-11.57-3.72-7.08a69.8,69.8,0,0,1,15.79-6l1.91,7.77A62,62,0,0,0,1748.59,846.24Zm745.32-4.08a62.47,62.47,0,0,0-14.67-2.86l.57-8a70.67,70.67,0,0,1,16.57,3.23Zm-30.34-3h-16v-8h16Zm-31.91,0h-16v-8h16Zm-31.92,0h-15.95v-8h15.95Zm-31.91,0h-16v-8h16Zm-31.91,0h-16v-8h16Zm-31.92,0h-16v-8h16Zm-31.91,0h-16v-8h16Zm-31.92,0h-16v-8h16Zm-31.91,0h-16v-8h16Zm-31.92,0h-16v-8h16Zm-31.91,0h-16v-8h16Zm-31.92,0h-16v-8h16Zm-31.91,0h-16v-8h16Zm-31.92,0h-15.95v-8h15.95Zm-31.91,0h-16v-8h16Zm-31.92,0H1968.9v-8h15.95Zm-31.91,0h-16v-8h16Zm-31.92,0h-16v-8h16Zm-31.91,0h-16v-8h16Zm-31.91,0h-16v-8h16Zm-31.92,0h-16v-8h16Zm-31.91,0H1777.5l-.09-8h16Z"/><rect class="Graphic-Style-61" x="1700.51" y="822.31" width="47.05" height="47.05"/><rect class="Graphic-Style-61" x="1700.51" y="1528.05" width="47.05" height="47.05"/><rect class="Graphic-Style-61" x="2503.2" y="822.31" width="47.05" height="47.05"/><rect class="Graphic-Style-61" x="2503.2" y="1528.05" width="47.05" height="47.05"/><path class="cls-8" d="M4788,3407.42H1123.72a2.5,2.5,0,0,1,0-5H4788a2.5,2.5,0,1,1,0,5Z"/><path class="cls-9" d="M1470.53,1893.63c92.67-7.12,14.26,848.32,14.26,848.32h-37.07S1377.85,1900.76,1470.53,1893.63Z"/><path class="cls-10" d="M1422.05,2734.82s-44.2-570.29-84.12-578.85-64.15,82.69-37.07,179.65,89.83,409.18,89.83,409.18Z"/><path class="cls-11" d="M1343.64,2749.08s-158.26-92.67-148.28-138.3,148.28,87,172.51,122.62S1343.64,2749.08,1343.64,2749.08Z"/><path class="cls-10" d="M1516.15,2727.69s89.82,4.28,94.1-58.45S1499,2717.71,1499,2717.71Z"/><path class="cls-9" d="M1529,2692.05s203.88-309.39,165.39-349.31-139.72,144-152.56,208.16S1529,2692.05,1529,2692.05Z"/><path class="cls-10" d="M1343.64,2749.08s-119.77-173.94-136.87-302.26,92.67-12.83,126.89,82.7,34.21,203.88,34.21,203.88Z"/><path class="cls-11" d="M1365,2769S1169.7,2156,1246.69,2114.63s139.72,641.58,139.72,641.58Z"/><path class="cls-11" d="M1447.72,2742c0-4.28,42.77-541.78-58.46-533.23s29.94,550.34,29.94,550.34Z"/><path class="cls-11" d="M1519,2746.23s148.28-223.84,94.1-246.65-115.48,246.65-115.48,246.65Z"/><path class="cls-11" d="M1476.23,2743.38S1473.82,2114,1585,2092.65s-87.41,663.56-87.41,663.56Z"/><path class="cls-12" d="M1591.26,3360.73h-315.6c-139.55-384.14,63.77-631.6,63.77-631.6h188.06S1730.81,2976.59,1591.26,3360.73Z"/><path class="cls-2" d="M1591.26,3360.73h-104c20.33-87.25,55.32-254.14,54.3-365.59-1.42-156.83-87-265.18-87-265.18l1.7-.83h71.22S1730.81,2976.59,1591.26,3360.73Z"/><path class="Graphic-Style-61" d="M1590.75,3362.15l.51-1.43h-315.6l.51,1.43q-6.09,21.63-11.09,42.77h336.75Q1596.84,3383.8,1590.75,3362.15Z"/><rect class="Graphic-Style-61" x="1289.1" y="2718.07" width="298.34" height="33.15" rx="16.57"/><g id="Artwork_8" data-name="Artwork 8"><circle class="cls-1" cx="2713.17" cy="2417.22" r="153.7"/><path class="cls-5" d="M2713.17,2408.16a33.15,33.15,0,1,1,32.66-38.86,6.84,6.84,0,0,0,6.71,5.71h0a6.82,6.82,0,0,0,6.71-8,46.77,46.77,0,1,0-46.08,54.77h0a33.15,33.15,0,1,1-32.66,38.86,6.83,6.83,0,0,0-6.72-5.71h0a6.82,6.82,0,0,0-6.71,8,46.77,46.77,0,1,0,46.09-54.76Z"/><path class="cls-5" d="M2713.17,2307.45c-3.71,0-6.71,2.71-6.71,6.05v207.44c0,3.34,3,6,6.71,6s6.71-2.7,6.71-6V2313.5C2719.88,2310.16,2716.87,2307.45,2713.17,2307.45Z"/></g><g id="Artwork_8-2" data-name="Artwork 8"><circle class="cls-11" cx="2668.15" cy="2013.13" r="117.23"/><path class="cls-5" d="M2668.15,2006.22a25.28,25.28,0,1,1,24.91-29.65,5.22,5.22,0,0,0,5.12,4.36h0a5.2,5.2,0,0,0,5.12-6.1,35.67,35.67,0,1,0-35.15,41.77h0a25.28,25.28,0,1,1-24.91,29.64,5.21,5.21,0,0,0-5.12-4.36h0A5.2,5.2,0,0,0,2633,2048a35.67,35.67,0,1,0,35.15-41.77Z"/><path class="cls-5" d="M2668.15,1929.4A4.89,4.89,0,0,0,2663,1934v158.23a5.15,5.15,0,0,0,10.24,0V1934A4.89,4.89,0,0,0,2668.15,1929.4Z"/></g><rect class="cls-13" x="2845.35" y="1710.73" width="79.91" height="67.69" rx="17.86"/><rect class="cls-14" x="2845.35" y="1823.55" width="79.91" height="67.69" rx="17.86"/><path class="cls-5" d="M3890.45,1994h-879a36.12,36.12,0,0,1-36.08-36.08v-216a36.13,36.13,0,0,1,36.08-36.08h879a36.13,36.13,0,0,1,36.08,36.08v216A36.12,36.12,0,0,1,3890.45,1994Zm-879-280.16a28.12,28.12,0,0,0-28.08,28.08v216a28.11,28.11,0,0,0,28.08,28.08h879a28.11,28.11,0,0,0,28.08-28.08v-216a28.12,28.12,0,0,0-28.08-28.08Z"/><rect class="cls-5" x="2845.35" y="1936.37" width="79.91" height="67.69" rx="17.86"/><path class="cls-5" d="M3873.34,1759.81h-836.2a4,4,0,0,1,0-8h836.2a4,4,0,0,1,0,8Z"/><path class="cls-5" d="M3819.88,1806.86H3038.21a4,4,0,0,1,0-8h781.67a4,4,0,0,1,0,8Z"/><path class="cls-5" d="M3329.06,1847.5H3037.14a4,4,0,1,1,0-8h291.92a4,4,0,0,1,0,8Z"/><path class="cls-5" d="M3841.26,1884.92H3037.14a4,4,0,1,1,0-8h804.12a4,4,0,0,1,0,8Z"/><path class="cls-5" d="M3601.74,1922.35h-564.6a4,4,0,0,1,0-8h564.6a4,4,0,0,1,0,8Z"/><path class="cls-5" d="M3789.94,1959.77h-752.8a4,4,0,0,1,0-8h752.8a4,4,0,0,1,0,8Z"/><g id="Artwork_71" data-name="Artwork 71"><path class="cls-1" d="M3358.46,2284.39h0a100.53,100.53,0,0,1-100.53,100.53h0a100.53,100.53,0,0,1,100.53,100.54h0A100.54,100.54,0,0,1,3459,2384.92h0A100.53,100.53,0,0,1,3358.46,2284.39Z"/></g><g id="Artwork_71-2" data-name="Artwork 71"><path class="cls-1" d="M1090.8,2270.86h0A100.54,100.54,0,0,1,990.26,2371.4h0a100.53,100.53,0,0,1,100.54,100.53h0a100.53,100.53,0,0,1,100.53-100.53h0A100.53,100.53,0,0,1,1090.8,2270.86Z"/></g><g id="Artwork_71-3" data-name="Artwork 71"><path class="cls-1" d="M4695.07,1883.06h0a100.53,100.53,0,0,1-100.53,100.54h0a100.53,100.53,0,0,1,100.53,100.53h0a100.54,100.54,0,0,1,100.54-100.53h0A100.54,100.54,0,0,1,4695.07,1883.06Z"/></g><g id="Artwork_163" data-name="Artwork 163"><rect class="cls-5" x="1962.81" y="936.1" width="682.11" height="190.7" rx="28.42"/><path class="cls-11" d="M2137,998v32.42c-11.74,6.08-25,12.84-27.31,13.61-4.28,1.42-34.93-7.13-52-8.56-12.16-1-36.92,14.53-50.23,23.61V998a19.87,19.87,0,0,1,19.87-19.87h89.83A19.88,19.88,0,0,1,2137,998Z"/><rect class="cls-11" x="2179.18" y="978.12" width="100.24" height="22" rx="11"/><rect class="cls-11" x="2179.18" y="1020.45" width="158.92" height="22" rx="11"/><rect class="cls-11" x="2179.18" y="1062.77" width="89.85" height="22" rx="11"/><rect class="cls-1" x="2300.2" y="978.12" width="149.14" height="22" rx="11"/><rect class="cls-14" x="2358.87" y="1020.45" width="90.46" height="22" rx="11"/><rect class="cls-11" x="2289.81" y="1062.77" width="93.52" height="22" rx="11"/><rect class="cls-14" x="2470.11" y="978.12" width="43.4" height="22" rx="11"/><rect class="cls-1" x="2470.11" y="1020.45" width="124.69" height="22" rx="11"/><rect class="cls-1" x="2404.1" y="1062.77" width="190.7" height="22" rx="11"/><rect class="cls-14" x="2580.74" y="949.39" width="39.88" height="33.92" rx="16.96"/></g><path class="Graphic-Style-61" d="M4127.12,829.52s-23.52,29.22-5,42.06,26.38,10,26.38,10l17.82-27.81Z"/><path class="cls-14" d="M2250.67,1595.2s31.9,367.75,13.13,401.53-99.44,52.53-99.44,52.53l18.76-422.16Z"/><path class="cls-14" d="M2510.78,3382.23H2350.23a312.51,312.51,0,0,1-30-31.48l-6,31.48h-53.69c-3.24-24.24-8.39-62.49-11.51-84.66-2.34-16.59-6.93-33.74-11.06-47-4.39-14.15-8.25-23.9-8.25-23.9l103.19-26.59s9,18.12,20.67,38.74c11.29,20,25.05,42.37,35.45,52.85,21.12,21.27,99.57,68.54,114.06,79.18A19.93,19.93,0,0,1,2510.78,3382.23Z"/><path class="Graphic-Style-28" d="M2353.58,3238.81c-35.19,16.7-89.93,14.14-115.61,11.75-4.39-14.15-8.25-23.9-8.25-23.9l103.19-26.59S2341.93,3218.19,2353.58,3238.81Z"/><path class="cls-13" d="M2368,3190c-18,30.42-86.88,39.15-129.48,41.61-20.32,1.18-34.66.93-34.66.93S2136.24,2982,2054.18,2620.4c-73.72-148.7-115-290.35-136-378.08-13.37-55.9-18.48-89.91-18.48-89.91l24.13-148.91,137.2,9.83,159.71,11.44s1.73,15.51,4.63,40.77c10.49,91.43,36.21,310.61,50.06,384.68C2293.12,2544.76,2302.8,2811.85,2368,3190Z"/><path class="Graphic-Style-61" d="M2225.36,2065.54a67.38,67.38,0,0,1-22.27,10c-22.84,5.16-93.39,14.26-93.39,14.26l-42.77-27.09s-15.69-32.79-11.41-44.2c.67-1.78,2.57-3.5,5.5-5.18l159.71,11.44S2222.46,2040.28,2225.36,2065.54Z"/><path class="Graphic-Style-61" d="M2238.49,3231.62c-20.32,1.19-34.66.94-34.66.94s-67.59-250.54-149.65-612.17c-73.72-148.7-115-290.34-136-378.08l184.9-26.68s35,76.3,50,150.1,18.75,256.43,17.51,303.95,6.25,171.37,11.25,260.18C2186,3003,2224.87,3173.61,2238.49,3231.62Z"/><path class="Graphic-Style-61" d="M1566.2,3231.74l31.07,33.83,20.54-12.26-35.89-39.52C1572.64,3224.4,1566.2,3231.74,1566.2,3231.74Z"/><path class="Graphic-Style-61" d="M1641.12,3279c-.17,14.11,1.14,28.32,6,36.46,10,16.67,61.23,68.75,79.26,86.86,3.93,3.95,11.92,1.84,11.92,1.84a18.4,18.4,0,0,0,10.39-6.71Z"/><path class="cls-14" d="M1735.84,3247.67c-2,29.6,14.53,118.33,16.13,136,.58,6.31-1,10.71-3.27,13.79L1641.13,3279a305.33,305.33,0,0,1,3.84-41.9l-27.16,16.22-35.89-39.52c16.27-18.61,41.3-47.27,55.82-64.1,10.91-12.65,20.75-27.28,28-39.08,8-12.87,12.89-22.4,12.89-22.4l89.19,57.36s-3.62,8.76-8.44,21.43C1750.39,3190.78,1737.16,3228.36,1735.84,3247.67Z"/><path class="Graphic-Style-28" d="M1767.86,3145.57s-3.62,8.76-8.44,21.43c-67.47-8.24-87.74-40.73-93.64-56.39,8-12.87,12.89-22.4,12.89-22.4Z"/><path class="cls-13" d="M2150.09,2639.3c-2.41,184.36-365.92,507-365.92,507s-43.1,8.13-89.32-27.42a180.45,180.45,0,0,1-33.26-33.87c23.54-61.16,244.7-445.67,244.7-445.67s-79.65-248.17-103.79-408.9,19.31-222.18,19.31-222.18l253.92-18.08,11.6-.82,28,219C2132.66,2354.94,2151.4,2538.86,2150.09,2639.3Z"/><path class="Graphic-Style-61" d="M2089.31,2044.26s-28.77,37.53-67.55,25-161.36-2.5-161.36-2.5-32.52,133.83,0,212.64,62.55,300.2,85.06,321.47,53.79,22.51,53.79,22.51-77.55,48.79-103.83,100.07-190.12,374-190.12,374l-10.45,21.36a180.45,180.45,0,0,1-33.26-33.87c23.54-61.16,244.7-445.67,244.7-445.67s-79.65-248.17-103.79-408.9,19.31-222.18,19.31-222.18l253.92-18.08,12.33,35.36Z"/><path class="DA" d="M2179.72,1400.94a281.3,281.3,0,0,1-32.8,10.39c-9.54,5.21-15.86,17.88-20.05,31.92-7.4,24.75-8.16,53.77-8.16,53.77l-132.65-16.46s49.48-143.59,34.4-194.41,28.36-120.54,100.17-129.4,100.09,87,105.16,182C2227.07,1364.14,2222.27,1384.12,2179.72,1400.94Z"/><path class="DA" d="M2633.5,1228.7s31.27-75,53.79-141.34,81.3-65,81.3-65,7.51,113.83,8.76,117.58-36.28,68.8-41.28,75-50,72.55-50,72.55Z"/><path class="cls-14" d="M2704.8,1267.48c-90.06,212.64-190.13,265.18-315.22,350.24-38.53,26.21-140,43.86-221.65,54.3-63.93,8.19-115.74,12-115.74,12L2039,1485.66s32.86,3.14,78.64,3.81c14.94.22,31.27.18,48.27-.32,62.72-1.85,134.73-9.93,181.17-34,130.08-67.55,280.18-250.17,280.18-250.17s32.28,7.31,62.64,42.47A174.75,174.75,0,0,1,2704.8,1267.48Z"/><path class="Graphic-Style-28" d="M2704.8,1267.48c-90.06,212.64-190.13,265.18-315.22,350.24-38.53,26.21-140,43.86-221.65,54.3l-31.09-10.52-28.14-39.4,55.73-46.82c-16.61-5.07-30.09-9.47-30.09-9.47l-20.64-31.28s4.37-29.45,3.92-45.06c14.94.22,31.27.18,48.27-.32l123.26,66c44.61,4.16,96.37,5.63,129.14-4.38,67.54-20.64,168.86-107,204.51-163.24,25-39.42,52.71-104.63,67.08-140.15A174.75,174.75,0,0,1,2704.8,1267.48Z"/><path class="cls-9" d="M2094.57,1475.24s-184-59.43-226,132.78-66.12,415.57-66.12,415.57,380.18,62.63,427.25,16.54C2270.78,1610,2210.44,1493,2094.57,1475.24Z"/><path class="cls-14" d="M2193.13,1699s-12.51,436.55-62.54,439.05-365.25-60-372.76-102.57,88.82-511.6,148.86-554.12,198.88-16.27,231.4,5S2193.13,1699,2193.13,1699Z"/><polygon class="cls-9" points="2022.56 1969.67 2018.09 1989.32 2108.7 2000 2115.4 1984.84 2022.56 1969.67"/><path class="DA" d="M3075.32,1527.77s-30.68,45.06-52.13,67.9a86.38,86.38,0,0,1-10.72,10c-19.76,14.6-65.21,17.61-106.18,15.06s-63.35,14.6-63.35,14.6l-22.83-51.66,11.95-3.89,116.17-37.84Z"/><path class="DA" d="M3456,1561.49l-4.36,47.62-1.1,12.08s-18.47,30.33-106.61,12c-40-8.3-68.51-29.91-87.77-51l0,0c-4-4.44-7.66-8.85-10.9-13.12a192.71,192.71,0,0,1-16.31-25.28,121.67,121.67,0,0,1-5.7-11.84l119.34-17.27Z"/><path class="cls-15" d="M3451.68,1609.11l-1.1,12.08s-18.47,30.33-106.61,12c-40-8.3-68.51-29.91-87.77-51,12.54,12.16,32.13,23.34,62.53,26.53,74.85,7.84,125.46-2.14,125.46-2.14S3447.27,1607.46,3451.68,1609.11Z"/><rect class="cls-5" x="2737.32" y="810.85" width="1224.67" height="741.82" rx="41.22"/><path class="cls-6" d="M3920.77,1555.17H2778.55a43.77,43.77,0,0,1-43.73-43.72V852.07a43.78,43.78,0,0,1,43.73-43.72H3920.77a43.77,43.77,0,0,1,43.72,43.72v659.38A43.77,43.77,0,0,1,3920.77,1555.17ZM2778.55,813.35a38.77,38.77,0,0,0-38.73,38.72v659.38a38.77,38.77,0,0,0,38.73,38.72H3920.77a38.76,38.76,0,0,0,38.72-38.72V852.07a38.76,38.76,0,0,0-38.72-38.72Z"/><path class="Graphic-Style-29" d="M2819,1400.53s87.68-106.93,117.62-94.1,92,19.24,115.48,15,96.24-102.66,128.32-92,179.64,106.93,233.11,51.32,89.82-158.25,171.09-147.56,235.25-29.94,256.63-47,40.64-21.39,40.64-21.39v346.46H2818.83Z"/><path class="cls-6" d="M2818.16,1453.35a1.5,1.5,0,0,1-1.5-1.5V1002.74a1.5,1.5,0,1,1,3,0v449.11A1.5,1.5,0,0,1,2818.16,1453.35Z"/><path class="cls-6" d="M2936.27,1453.35a1.5,1.5,0,0,1-1.5-1.5V1002.74a1.5,1.5,0,0,1,3,0v449.11A1.5,1.5,0,0,1,2936.27,1453.35Z"/><path class="cls-6" d="M3054.38,1453.35a1.5,1.5,0,0,1-1.5-1.5V1002.74a1.5,1.5,0,1,1,3,0v449.11A1.5,1.5,0,0,1,3054.38,1453.35Z"/><path class="cls-6" d="M3172.49,1453.35a1.5,1.5,0,0,1-1.5-1.5V1002.74a1.5,1.5,0,1,1,3,0v449.11A1.5,1.5,0,0,1,3172.49,1453.35Z"/><path class="cls-6" d="M3290.6,1453.35a1.5,1.5,0,0,1-1.5-1.5V1002.74a1.5,1.5,0,0,1,3,0v449.11A1.5,1.5,0,0,1,3290.6,1453.35Z"/><path class="cls-6" d="M3408.71,1453.35a1.5,1.5,0,0,1-1.5-1.5V1002.74a1.5,1.5,0,1,1,3,0v449.11A1.5,1.5,0,0,1,3408.71,1453.35Z"/><path class="cls-6" d="M3526.82,1453.35a1.5,1.5,0,0,1-1.5-1.5V1002.74a1.5,1.5,0,0,1,3,0v449.11A1.5,1.5,0,0,1,3526.82,1453.35Z"/><path class="cls-6" d="M3644.93,1453.35a1.5,1.5,0,0,1-1.5-1.5V1002.74a1.5,1.5,0,0,1,3,0v449.11A1.5,1.5,0,0,1,3644.93,1453.35Z"/><path class="cls-6" d="M3763,1453.35a1.5,1.5,0,0,1-1.5-1.5V1002.74a1.5,1.5,0,1,1,3,0v449.11A1.5,1.5,0,0,1,3763,1453.35Z"/><path class="cls-6" d="M3881.15,1453.35a1.5,1.5,0,0,1-1.5-1.5V1002.74a1.5,1.5,0,0,1,3,0v449.11A1.5,1.5,0,0,1,3881.15,1453.35Z"/><path class="DA" d="M3009.59,1531.83c-4.86,7.61-49.32,34.49-65,37.36s-33.36,19.22-33.36,19.22l-53.89,18.74-25.12,8.74-2.72.94-19.17-38.42,1-.37c2.06-.76,7.16-2.66,13.89-5.29,20.17-7.89,55-22.37,67.24-32.7,17.56-14.88,63.11-6.3,85-14.89S3014.45,1524.22,3009.59,1531.83Z"/><path class="cls-15" d="M3023.19,1595.67a86.38,86.38,0,0,1-10.72,10c-19.76,14.6-65.21,17.61-106.18,15.06s-63.35,14.6-63.35,14.6l-10.71-19.42L2811.35,1578c2.06-.76,7.16-2.66,13.89-5.29,9.52,10,23.89,25.14,32.11,34.4,2.83,3.18,4.93,5.67,5.85,7,46.34.24,85.31.48,109.07-3.56C2990.63,1607.47,3013.66,1599.25,3023.19,1595.67Z"/><path class="cls-14" d="M2859.18,1636.63s-124.9,173-354.7,184.52c-157.32,7.88-272.68-50-329.8-87.3-25.91-16.91-39.83-29.6-40.26-30h0l3.57-217.78s241.26,147.41,285.82,161.79c115.89,37.41,233.44-17.06,373.94-82,11.34-5.25,24.71,8.09,36.07,24.55a263.2,263.2,0,0,1,15.93,26.79C2855.53,1628.22,2859.18,1636.63,2859.18,1636.63Z"/><path class="Graphic-Style-61" d="M2049.82,1390.15s43.86-1.18,66.38-19.31,18.51-31.12,3.22-46.87-8.85-46.09.41-48.06,27,19.69,28.56,19.3,11.26-2.36,11.67-7.48,10.05-27.19,28.56-59.09,39.83-57.52,14.48-88.64c11.27-26.79-22.93-46.88-66.38-16.15-29.37-32.3-122.3-12.61-123.1,68.54-37.82,30.73-69.6,77.21-29.37,127.24-25.75,2,16.29,75.84,43.45,79.38S2049.82,1390.15,2049.82,1390.15Z"/><path class="Graphic-Style-61" d="M2001.14,1331.65s-83.88,75.63-123.1,105.18-40.43,151.86,35.6,161.9c68.19,0,90.52-24.81,90.52-24.81s66.38,8.86,75.43-28.37.61-165.45.61-165.45S2056.06,1320.42,2001.14,1331.65Z"/><path class="Graphic-Style-28" d="M2859.18,1636.63s-124.9,173-354.7,184.52c-157.32,7.88-272.68-50-329.8-87.3-25.91-16.91-39.83-29.6-40.26-30h0s169.42,70.22,258.54,77.73c43.54,3.67,136.06,2.55,216.71-20.64,84.44-24.27,156.61-71,180.13-83.5,46-24.39,36.58-75,36.58-75s1.8-7.8,7.44-12a263.2,263.2,0,0,1,15.93,26.79C2855.53,1628.22,2859.18,1636.63,2859.18,1636.63Z"/><path class="Graphic-Style-61" d="M4038.64,643.16,3882.08,778.75c-1.79-2.18-3.59-4.36-5.37-6.54a38.37,38.37,0,0,1-55-4.81l-2.47,2.14L3786.42,798l-27.74,24-3.9,48.71,5.37,6.44,53.57-46.4,33.59,40.33-53.58,46.39,5.36,6.44,47.77,4,27.75-24,.43.52L3910.12,874a40.16,40.16,0,0,1,4.51-55.76l-5.43-6.58,156.74-135.74a21.8,21.8,0,0,0,2.43-30.31h0A20.82,20.82,0,0,0,4038.64,643.16Z"/><path class="DA" d="M4084.11,797.12s-125.76-14.29-149.72-32.48-55-13.76-24.76-36.37c32-23.92,49.89-54.37,67.53-50.85s69,7.84,87.94,24.65a347.47,347.47,0,0,0,39,29.47Z"/><path class="DA" d="M3957.7,767.66s-48.95,34.21-41.35,39.92c12.83,10,32.32-5.23,53.23-9s64.63-14.74,68-15.69-32.32-27.56-32.32-27.56Z"/><path class="cls-16" d="M4488.51,1253.1c12.51-108.2,163.86-350.87,122.59-415.91-95.26-150.11-528.49-122.27-528.49-122.27s-31.89,51-21.89,86C4285.88,887.22,4431,904.73,4431,904.73l-82.55,153.86S4476.91,1353.5,4488.51,1253.1Z"/><path class="DA" d="M4349.67,1087.12c.63,1.91-131.34,45.28-131.34,45.28s-6.06-28.83-11.32-47.53c-2.48-8.84-4.78-15.4-6.19-15.61-36.9,8.93-58.56-13.54-70.67-44.64C4109.66,972,4102,818,4207.7,793.12s125.08,154.34,127,220.66S4349,1085.21,4349.67,1087.12Z"/><path class="DA" d="M4118.81,933s-20,40.48-23.29,53.07c-2.39,9,20.2,10.85,30.65,9.43s15-12.12,15-12.12Z"/><path class="Graphic-Style-61" d="M4099.5,791.21s-11.88,35.71,30.64,60.58,43.78,23,43.16,54.85,6.88,40.17,6.88,40.17l11.26-.63s-.63-64.42,22.51-54.21,15,49.1,17.51,70.15,25.32,45.17,57.84,53.46,47.23,13.5,56.62-4.36,31.27-23.59,4.37-141.57-81.93-114.8-125.08-107.14c-46.91-17.86-82.56,8.29-100.07,15.94C4099.5,780.36,4099.5,791.21,4099.5,791.21Z"/><path class="cls-14" d="M4393.87,2945.54l5.83,99.91s106.74-22.11,113.83-36.14l-4.17-69.3Z"/><path class="cls-13" d="M4547.72,3063.53c.94-18.18-7.5-67.5-30-68.45-34.71,21-119.87,21.26-119.87,21.26s-133.22,48.24-175.44,68.33c-23,10.92-24,28.92-20.16,43.06H4546C4546.44,3106.46,4547.12,3075.1,4547.72,3063.53Z"/><path class="cls-5" d="M4202.23,3127.73a72.1,72.1,0,0,0,9.85,21h333.56s.15-8.87.39-21Z"/><path class="cls-8" d="M4545.64,3151.26H4212.07a2.49,2.49,0,0,1-2-1,74.32,74.32,0,0,1-10.24-21.84,2.5,2.5,0,0,1,2.42-3.16H4546a2.49,2.49,0,0,1,1.78.75,2.52,2.52,0,0,1,.72,1.8c-.24,12.16-.39,21-.39,21A2.51,2.51,0,0,1,4545.64,3151.26Zm-332.24-5h329.78c0-3.09.16-8.86.3-16H4205.6A72,72,0,0,0,4213.4,3146.26Z"/><path class="cls-14" d="M3808.47,2696.65l5.83,99.91s106.74-22.11,113.83-36.14l-4.17-69.3Z"/><path class="cls-5" d="M3613,2872.53c4.52,10.22,13.67,17.93,13.67,17.93H3956.9s-.57-7-1.69-17.93Z"/><path class="cls-8" d="M3956.9,2893H3626.68a2.5,2.5,0,0,1-1.61-.59c-.4-.33-9.65-8.2-14.35-18.83a2.52,2.52,0,0,1,.2-2.38A2.49,2.49,0,0,1,3613,2870h342.2a2.5,2.5,0,0,1,2.49,2.24c1.11,10.83,1.69,17.92,1.69,18a2.49,2.49,0,0,1-2.49,2.7Zm-329.27-5h326.55c-.24-2.66-.65-7.17-1.23-12.93H3617.09A57.65,57.65,0,0,0,3627.63,2888Z"/><path class="cls-13" d="M3928.76,2748.09c-34.71,21-116.33,22-116.33,22s-139.91,47.71-182.12,67.8c-21.66,10.3-22,23.87-17.3,34.64h342.2C3951.65,2837.74,3942.56,2763.15,3928.76,2748.09Z"/><path class="DA" d="M3429,1560.3s-17.86-12.84-30-27.72-50.3-40.58-63.87-41.83-22.61,10.67-2.31,25.27,21.33,40,21.33,40Z"/><path class="cls-13" d="M4498.52,2324.33c12.51,204.07,30.65,580.2,26.45,629a234.27,234.27,0,0,1-42.11,14c-57.87,13.38-105.25,2.3-105.25,2.3s-129.26-494.74-141.77-624.84,52.54-640.28,52.54-640.28l81.58-9.79,173.59-20.82S4536.05,2092.19,4498.52,2324.33Z"/><path class="cls-13" d="M4421,1872.81a126.47,126.47,0,0,1-6.4,23.27c-35.39,94.1-184.52,188.34-376.36,310.9-17.51,43.37-82.56,497.75-82.56,497.75s-18.62,3.57-46.33,4.39c-29.73.88-69.92-1.38-108.77-14.59-17.52-20.41-40-337-17.52-520.71s365.25-449,365.25-449L4401,1717.2Z"/><path class="Graphic-Style-61" d="M4414.57,1896.08c-35.39,94.1-184.52,188.34-376.36,310.9-17.51,43.37-82.56,497.75-82.56,497.75s-18.62,3.57-46.33,4.39c16.25-90.77,59.79-336.18,62.4-372.67,3.21-44.91,18.18-149.7,35.29-164.67s127.24-69.51,234.17-129.39,173.23-146.49,173.23-146.49Z"/><path class="Graphic-Style-61" d="M4498.52,2324.33c12.51,204.07,30.65,580.2,26.45,629a234.27,234.27,0,0,1-42.11,14c-3.65-76.31-57-500-57-505.35,0-5.71-8.56-122.62-8.56-122.62s7.13-20,29.94-84.12,57-503.28,57-503.28-8.55,1.42-87,5.7-94.1-37.07-94.1-37.07l46.8-25.87,173.59-20.82S4536.05,2092.19,4498.52,2324.33Z"/><path class="cls-16" d="M4355.92,1059.84c-13.3-3.83-21.64,9.08-36.9,11.33-142.59,21-247.67,202.8-247.67,329.07,0,0,43.16,132,46.91,254.46l3.75,84.18s326.48,42.09,440.93-57.4c-25.3-196.43-48.84-359.8-88.19-467.79Z"/><path class="cls-16" d="M4215.08,1117.55l-82.47,304.74c-4.19,4.06-8.77,8.4-13.69,13-53,49-145.26,123.77-220.81,165-104.17,56.82-264.69,46.49-451.72,46.21a31.77,31.77,0,0,1-6.72-7.53c-19.58-30.05,1.07-95.45,1.07-95.45s293.49-9,458-187.37S4215.08,1117.55,4215.08,1117.55Z"/><path class="Graphic-Style-30" d="M4118.92,1435.24c-53,49-145.26,123.77-220.81,165-104.17,56.82-264.69,46.49-451.72,46.21a31.77,31.77,0,0,1-6.72-7.53c53.51-1.89,284.08-11.21,356.68-33.84C3862.06,1584.57,4046.91,1477.61,4118.92,1435.24Z"/><circle class="cls-16" cx="3529.03" cy="883.62" r="28.51"/><circle class="cls-9" cx="3658.77" cy="883.62" r="28.51"/><circle class="Graphic-Style-28" cx="3794.64" cy="883.62" r="28.51"/><path class="DA" d="M2704.8,1168.66s9.33-35.61,33.77-52.53c16.26-11.26,13.76-26.9,17.51-41.91s23.14-13.13,24.4,14.39-20.64,107.57-51.91,117.58Z"/><path class="cls-15" d="M2179.92,1400.09l-.2.85a281.3,281.3,0,0,1-32.8,10.39c-9.54,5.21-15.86,17.88-20.05,31.92-9.53-10.75-19.22-30.55-18.95-47.43C2135.36,1412.21,2179.92,1400.09,2179.92,1400.09Z"/><path class="cls-17" d="M4161.34,922.11c-1.21,1.43-3.75,1.34-6.72,1.14s-6.46-.52-10.58-.52c-8.21-.06-16.28.87-18-2.4-.85-1.62.42-4.2,3.57-6.53a24.64,24.64,0,0,1,14.49-4.39,24.12,24.12,0,0,1,8.69,1.61,18.27,18.27,0,0,1,6.18,3.89C4162,917.89,4162.51,920.77,4161.34,922.11Z"/><ellipse class="Graphic-Style-61" cx="4133.18" cy="941.71" rx="8.55" ry="8.2"/><path class="cls-17" d="M4159.68,1018.59a1.44,1.44,0,0,1,.63,1.26,5.72,5.72,0,0,1-.45,2.46,17.32,17.32,0,0,1-.78,1.55,11.33,11.33,0,0,1-1.3,1.61,4.39,4.39,0,0,1-.87.78c-.33.24-.67.49-1,.72a8.49,8.49,0,0,1-1.21.59,6.31,6.31,0,0,1-1.31.44c-.46.1-.93.19-1.38.26h-1.34a5.79,5.79,0,0,1-1.26-.15,5.87,5.87,0,0,1-1.15-.29,9.18,9.18,0,0,1-3.34-1.91c-1.56-1.47-1.94-2.9-1.38-3.52s1.82-.55,3.4-.33c.79.07,1.65.22,2.51.22a3.32,3.32,0,0,0,.63,0,3.18,3.18,0,0,0,.62,0,6,6,0,0,1,.61-.06,5.66,5.66,0,0,1,.59-.15,2,2,0,0,0,.59-.18c.19-.08.4-.1.58-.19a6.27,6.27,0,0,1,.58-.29,2,2,0,0,0,.57-.29c.36-.25.77-.42,1.13-.67a9.8,9.8,0,0,1,1.06-.71C4157.72,1018.77,4158.91,1018.17,4159.68,1018.59Z"/><path class="cls-15" d="M4207,1084.87c-2.48-8.84-4.78-15.4-6.19-15.61,0,0,29.43-11.86,36.8-23.26C4239.77,1062.54,4220.77,1076.82,4207,1084.87Z"/><rect class="cls-14" x="2223.36" y="640.18" width="195.42" height="249.87" rx="27.76"/><path class="cls-5" d="M2288.63,727.58v74.56a8.36,8.36,0,0,0,13.1,6.88l55.73-38.41a8.36,8.36,0,0,0-.19-13.9l-55.73-36.15A8.36,8.36,0,0,0,2288.63,727.58Z"/><path class="cls-8" d="M4431,908.73a4,4,0,0,1-2.43-7.18l24.78-18.9a4,4,0,1,1,4.85,6.36l-24.78,18.9A3.93,3.93,0,0,1,4431,908.73Z"/><path class="cls-8" d="M4088.27,1466.55a4,4,0,0,1-2.66-7l30.65-27.31a4,4,0,0,1,5.32,6l-30.65,27.31A4,4,0,0,1,4088.27,1466.55Z"/><path class="DA" d="M2215.56,1262.23s31,31.72,30.65,40.63-29.94,17.47-29.94,17.47Z"/><path class="cls-17" d="M2177.42,1280.05c-.39-.11-.65-.76-.58-1.88a11,11,0,0,1,1.46-4.33c1.82-3.38,5.42-7.13,9.89-10.27a50.92,50.92,0,0,1,12.26-6.45c3.37-1.16,5.67-1.36,6-.59.73,1.56-6.42,6.22-14.72,12a95.61,95.61,0,0,0-10,7.87C2179.42,1278.58,2178.29,1280.25,2177.42,1280.05Z"/><ellipse class="Graphic-Style-61" cx="2199.52" cy="1282.1" rx="5.35" ry="7.4"/><path class="cls-17" d="M2216.81,1342.55a1.44,1.44,0,0,1-.29,1.33,4.39,4.39,0,0,1-1.74,1.42,8.26,8.26,0,0,1-3.19.85,10.1,10.1,0,0,1-4.08-.6,9.86,9.86,0,0,1-5.45-4.57c-.84-1.64-.76-3,0-3.42,1.42-.92,4.37,1.12,7.57,2.21a34.83,34.83,0,0,0,4.47,1.24,12.1,12.1,0,0,1,1.76.58A1.9,1.9,0,0,1,2216.81,1342.55Z"/><path class="Graphic-Style-61" d="M2263.51,3404.51H2310l4.25-22.28h-53.69C2262.31,3395.45,2263.51,3404.51,2263.51,3404.51Z"/><path class="Graphic-Style-61" d="M2350.23,3382.23c10.4,9.28,21.74,17.48,30.95,19.33,23.54,4.73,127.94,0,127.94,0s4.11-9.8,1.66-19.33Z"/><path class="Graphic-Style-28" d="M2137,1030.41v34.5a19.88,19.88,0,0,1-19.88,19.87H2027.3a19.87,19.87,0,0,1-19.87-19.87v-5.84c13.31-9.08,38.07-24.62,50.23-23.61,17.11,1.43,47.76,10,52,8.56C2112,1043.25,2125.27,1036.49,2137,1030.41Z"/><path class="Graphic-Style-61" d="M1337,1070.25a2,2,0,0,1-1.11-3.66l192.47-128.32a2,2,0,0,1,2.27,0l171.09,121.9a2,2,0,0,1-2.32,3.26l-170-121.1-191.32,127.55A2,2,0,0,1,1337,1070.25Z"/><circle class="Graphic-Style-61" cx="1529.9" cy="940.88" r="12.12"/><rect class="cls-5" x="1269.22" y="1061.83" width="501.86" height="233.82" rx="41.35"/><path class="cls-6" d="M1729.74,1298.16H1310.57a43.9,43.9,0,0,1-43.85-43.85V1103.18a43.9,43.9,0,0,1,43.85-43.85h419.17a43.9,43.9,0,0,1,43.84,43.85v151.13A43.9,43.9,0,0,1,1729.74,1298.16Zm-419.17-233.83a38.9,38.9,0,0,0-38.85,38.85v151.13a38.9,38.9,0,0,0,38.85,38.85h419.17a38.89,38.89,0,0,0,38.84-38.85V1103.18a38.89,38.89,0,0,0-38.84-38.85Z"/><path class="cls-2" d="M1497,1182.57l16.17-10.7c-2.53-10.21-2.54-10.23-5.07-20.44l-19.29-1.91c-3.94-5.33-5.92-8-9.85-13.35l3.86-19c-9-5.43-9-5.45-18-10.87l-15,12.29-16.4-2.48-10.7-16.17-20.44,5.07-1.91,19.29-13.35,9.85-19-3.87-10.87,18,12.29,15-2.48,16.41-16.17,10.7c2.53,10.21,2.54,10.23,5.07,20.44l19.29,1.91,9.85,13.35-3.86,19,18,10.87,15-12.29,16.4,2.48,10.7,16.16,20.44-5.06,1.91-19.29,13.35-9.85,19,3.86c5.43-9,5.45-9,10.87-18l-12.29-15Zm-65,32.48a33.91,33.91,0,1,1,33.91-33.91A33.91,33.91,0,0,1,1431.94,1215.05Z"/><rect class="cls-2" x="1554.21" y="1104.61" width="102.65" height="24.24" rx="12.12"/><rect class="cls-2" x="1554.21" y="1157.36" width="161.82" height="24.24" rx="12.12"/><rect class="cls-2" x="1554.21" y="1210.11" width="92.67" height="24.24" rx="12.12"/><g id="Artwork_62" data-name="Artwork 62"><path class="cls-1" d="M1283.1,1469.1a56.55,56.55,0,0,0-80-10.15,58.31,58.31,0,0,0-16.94,69.51l-102.8,81a13.59,13.59,0,0,0-2.34,18.9,13.18,13.18,0,0,0,18.65,2.36l102.8-81a56.49,56.49,0,0,0,70.67.49A58.32,58.32,0,0,0,1283.1,1469.1Zm-19.89,68.23a40.58,40.58,0,0,1-57.46-7.28,41.85,41.85,0,0,1,7.18-58.22,40.61,40.61,0,0,1,57.47,7.28A41.88,41.88,0,0,1,1263.21,1537.33Z"/><rect class="cls-1" x="1053.69" y="1712.69" width="43.24" height="68.31"/><rect class="cls-1" x="1128.56" y="1662.77" width="43.24" height="118.22"/><rect class="cls-1" x="1203.44" y="1662.77" width="43.24" height="118.22"/><rect class="cls-1" x="1278.31" y="1601.03" width="43.24" height="179.96"/><rect class="cls-1" x="1353.19" y="1532.73" width="43.24" height="248.27"/></g></g></svg>